<svg version="1.1" width="600" height="360" xmlns="http://www.w3.org/2000/svg" >
<defs><marker id="arrowhead" markerWidth="10" markerHeight="7" refX="0" refY="3.5" orient="auto"><polygon points="0 0, 10 3.5, 0 7" /></marker></defs>

<g transform="translate(0, 20)">
<path d="M 180 0 h 240 v 30 h -240 v -30" stroke="#000000" stroke-width="1" fill="none"/>
<path d="M 210 0 v 30" stroke="#000000" stroke-width="1" fill="none"/>
<path d="M 240 0 v 30" stroke="#000000" stroke-width="1" fill="none"/>
<path d="M 270 0 v 30" stroke="#000000" stroke-width="1" fill="none"/>
<path d="M 300 0 v 30" stroke="#000000" stroke-width="1" fill="none"/>
<path d="M 330 0 v 30" stroke="#000000" stroke-width="1" fill="none"/>
<path d="M 360 0 v 30" stroke="#000000" stroke-width="1" fill="none"/>
<path d="M 390 0 v 30" stroke="#000000" stroke-width="1" fill="none"/>
<text x="190" y="20" style="font-size:17px;font-family:'Arial'">0</text>
<text x="220" y="20" style="font-size:17px;font-family:'Arial'">0</text>
<text x="250" y="20" style="font-size:17px;font-family:'Arial'">0</text>
<text x="280" y="20" style="font-size:17px;font-family:'Arial'">0</text>
<text x="310" y="20" style="font-size:17px;font-family:'Arial'">0</text>
<text x="340" y="20" style="font-size:17px;font-family:'Arial'">0</text>
<text x="370" y="20" style="font-size:17px;font-family:'Arial'">0</text>
<text x="400" y="20" style="font-size:17px;font-family:'Arial'">0</text>

<text x="430" y="20" style="font-size:17px;font-family:'Arial'">0</text>
</g>

<g transform="translate(0, 60)">
<path d="M 180 0 h 240 v 30 h -240 v -30" stroke="#000000" stroke-width="1" fill="none"/>
<path d="M 210 0 v 30" stroke="#000000" stroke-width="1" fill="none"/>
<path d="M 240 0 v 30" stroke="#000000" stroke-width="1" fill="none"/>
<path d="M 270 0 v 30" stroke="#000000" stroke-width="1" fill="none"/>
<path d="M 300 0 v 30" stroke="#000000" stroke-width="1" fill="none"/>
<path d="M 330 0 v 30" stroke="#000000" stroke-width="1" fill="none"/>
<path d="M 360 0 v 30" stroke="#000000" stroke-width="1" fill="none"/>
<path d="M 390 0 v 30" stroke="#000000" stroke-width="1" fill="none"/>
<text x="190" y="20" style="font-size:17px;font-family:'Arial'">0</text>
<text x="220" y="20" style="font-size:17px;font-family:'Arial'">0</text>
<text x="250" y="20" style="font-size:17px;font-family:'Arial'">0</text>
<text x="280" y="20" style="font-size:17px;font-family:'Arial'">0</text>
<text x="310" y="20" style="font-size:17px;font-family:'Arial'">0</text>
<text x="340" y="20" style="font-size:17px;font-family:'Arial'">0</text>
<text x="370" y="20" style="font-size:17px;font-family:'Arial'">0</text>
<text x="400" y="20" style="font-size:17px;font-family:'Arial'">1</text>

<text x="430" y="20" style="font-size:17px;font-family:'Arial'">1</text>
</g>

<g transform="translate(0, 100)">
<path d="M 180 0 h 240 v 30 h -240 v -30" stroke="#000000" stroke-width="1" fill="none"/>
<path d="M 210 0 v 30" stroke="#000000" stroke-width="1" fill="none"/>
<path d="M 240 0 v 30" stroke="#000000" stroke-width="1" fill="none"/>
<path d="M 270 0 v 30" stroke="#000000" stroke-width="1" fill="none"/>
<path d="M 300 0 v 30" stroke="#000000" stroke-width="1" fill="none"/>
<path d="M 330 0 v 30" stroke="#000000" stroke-width="1" fill="none"/>
<path d="M 360 0 v 30" stroke="#000000" stroke-width="1" fill="none"/>
<path d="M 390 0 v 30" stroke="#000000" stroke-width="1" fill="none"/>
<text x="190" y="20" style="font-size:17px;font-family:'Arial'">0</text>
<text x="220" y="20" style="font-size:17px;font-family:'Arial'">0</text>
<text x="250" y="20" style="font-size:17px;font-family:'Arial'">0</text>
<text x="280" y="20" style="font-size:17px;font-family:'Arial'">0</text>
<text x="310" y="20" style="font-size:17px;font-family:'Arial'">0</text>
<text x="340" y="20" style="font-size:17px;font-family:'Arial'">0</text>
<text x="370" y="20" style="font-size:17px;font-family:'Arial'">1</text>
<text x="400" y="20" style="font-size:17px;font-family:'Arial'">0</text>

<text x="430" y="20" style="font-size:17px;font-family:'Arial'">2</text>
</g>

<g transform="translate(0, 140)">
<path d="M 180 0 h 240 v 30 h -240 v -30" stroke="#000000" stroke-width="1" fill="none"/>
<path d="M 210 0 v 30" stroke="#000000" stroke-width="1" fill="none"/>
<path d="M 240 0 v 30" stroke="#000000" stroke-width="1" fill="none"/>
<path d="M 270 0 v 30" stroke="#000000" stroke-width="1" fill="none"/>
<path d="M 300 0 v 30" stroke="#000000" stroke-width="1" fill="none"/>
<path d="M 330 0 v 30" stroke="#000000" stroke-width="1" fill="none"/>
<path d="M 360 0 v 30" stroke="#000000" stroke-width="1" fill="none"/>
<path d="M 390 0 v 30" stroke="#000000" stroke-width="1" fill="none"/>
<text x="190" y="20" style="font-size:17px;font-family:'Arial'">0</text>
<text x="220" y="20" style="font-size:17px;font-family:'Arial'">0</text>
<text x="250" y="20" style="font-size:17px;font-family:'Arial'">0</text>
<text x="280" y="20" style="font-size:17px;font-family:'Arial'">0</text>
<text x="310" y="20" style="font-size:17px;font-family:'Arial'">0</text>
<text x="340" y="20" style="font-size:17px;font-family:'Arial'">0</text>
<text x="370" y="20" style="font-size:17px;font-family:'Arial'">1</text>
<text x="400" y="20" style="font-size:17px;font-family:'Arial'">1</text>

<text x="430" y="20" style="font-size:17px;font-family:'Arial'">3</text>
</g>


<g transform="translate(0, 30)">
<g transform="translate(0, 180)">
<path d="M 180 0 h 240 v 30 h -240 v -30" stroke="#000000" stroke-width="1" fill="none"/>
<path d="M 210 0 v 30" stroke="#000000" stroke-width="1" fill="none"/>
<path d="M 240 0 v 30" stroke="#000000" stroke-width="1" fill="none"/>
<path d="M 270 0 v 30" stroke="#000000" stroke-width="1" fill="none"/>
<path d="M 300 0 v 30" stroke="#000000" stroke-width="1" fill="none"/>
<path d="M 330 0 v 30" stroke="#000000" stroke-width="1" fill="none"/>
<path d="M 360 0 v 30" stroke="#000000" stroke-width="1" fill="none"/>
<path d="M 390 0 v 30" stroke="#000000" stroke-width="1" fill="none"/>
<text x="190" y="20" style="font-size:17px;font-family:'Arial'">1</text>
<text x="220" y="20" style="font-size:17px;font-family:'Arial'">1</text>
<text x="250" y="20" style="font-size:17px;font-family:'Arial'">1</text>
<text x="280" y="20" style="font-size:17px;font-family:'Arial'">1</text>
<text x="310" y="20" style="font-size:17px;font-family:'Arial'">1</text>
<text x="340" y="20" style="font-size:17px;font-family:'Arial'">1</text>
<text x="370" y="20" style="font-size:17px;font-family:'Arial'">1</text>
<text x="400" y="20" style="font-size:17px;font-family:'Arial'">0</text>

<text x="430" y="20" style="font-size:17px;font-family:'Arial'">254</text>
</g>

<g transform="translate(0, 220)">
<path d="M 180 0 h 240 v 30 h -240 v -30" stroke="#000000" stroke-width="1" fill="none"/>
<path d="M 210 0 v 30" stroke="#000000" stroke-width="1" fill="none"/>
<path d="M 240 0 v 30" stroke="#000000" stroke-width="1" fill="none"/>
<path d="M 270 0 v 30" stroke="#000000" stroke-width="1" fill="none"/>
<path d="M 300 0 v 30" stroke="#000000" stroke-width="1" fill="none"/>
<path d="M 330 0 v 30" stroke="#000000" stroke-width="1" fill="none"/>
<path d="M 360 0 v 30" stroke="#000000" stroke-width="1" fill="none"/>
<path d="M 390 0 v 30" stroke="#000000" stroke-width="1" fill="none"/>
<text x="190" y="20" style="font-size:17px;font-family:'Arial'">1</text>
<text x="220" y="20" style="font-size:17px;font-family:'Arial'">1</text>
<text x="250" y="20" style="font-size:17px;font-family:'Arial'">1</text>
<text x="280" y="20" style="font-size:17px;font-family:'Arial'">1</text>
<text x="310" y="20" style="font-size:17px;font-family:'Arial'">1</text>
<text x="340" y="20" style="font-size:17px;font-family:'Arial'">1</text>
<text x="370" y="20" style="font-size:17px;font-family:'Arial'">1</text>
<text x="400" y="20" style="font-size:17px;font-family:'Arial'">1</text>

<text x="430" y="20" style="font-size:17px;font-family:'Arial'">255</text>
</g>
</g>

<text x="270" y="193" style="font-size:47px;font-family:'Arial'">......</text>
<path d="M 160 15 v 260" stroke="#000000" stroke-width="1" fill="none" marker-end="url(#arrowhead)" />

<!-- 

<path d="M 100 60 H 500" stroke="#000000" stroke-width="1" fill="none" marker-end="url(#arrowhead)" />
<path d="M 300 60 v 40 H 500" stroke="#000000" stroke-width="1" fill="none" marker-end="url(#arrowhead)" />

<circle cx="300" cy="60" r="3" fill="#000000" />


<path d="M 397 90 h -5 a 5 5 0 0 0 -5 5 v 10 a 5 5 0 0 1 -5 5 a 5 5 0 0 1 5 5 v 10 a 5 5 0 0 0 5 5 h 5" stroke="#000000" stroke-width="1" fill="none"/>


<g transform="translate(0, 0)">
<path d="M 502 20 h 5 a 5 5 0 0 1 5 5 v 20 a 5 5 0 0 0 5 5 a 5 5 0 0 0 -5 5 v 10 a 5 5 0 0 1 -5 5 h -5" stroke="#000000" stroke-width="1" fill="none"/>
<path d="M 20 38 v -5 a 5 5 0 0 1 5 -5 h 40 a 5 5 0 0 0 5 -5 a 5 5 0 0 0 5 5 h 40 a 5 5 0 0 1 5 5 v 5" stroke="#000000" stroke-width="1" fill="none" />
<path d="M 30 166 v 5 a 5 5 0 0 0 5 5 h 30 a 5 5 0 0 1 5 5 a 5 5 0 0 1 5 -5 h 30 a 5 5 0 0 0 5 -5 v -5" stroke="#000000" stroke-width="1" fill="none" />
</g>

<path d="M 0 5 a 5 5 0 0 1 5 -5 h 52 a 5 5 0 0 1 5 5 v 90 a 5 5 0 0 1 -5 5 h -52 a 5 5 0 0 1 -5 -5 v -90" stroke="#0000FF" stroke-width="1" fill="none" />

<path d="M 10 60 h 580 v 20 h -580 v -20" stroke="#000000" stroke-width="1" fill="none"/>
<path d="M 30 60 v 20" stroke="#000000" stroke-width="1" fill="none"/>

<text x="15" y="55" style="font-size:13px;font-family:'Arial'">0</text>
<text x="530" y="55" style="font-size:13px;font-family:'Courier New'">n-3</text>

<path d="M 160 106 V 92" stroke="#000000" stroke-width="1" fill="none" marker-end="url(#arrowhead)" />

<text x="138" y="120" style="font-size:13px;font-family:'Arial'">one byte</text>
-->
</svg>
