<svg version="1.1" width="600" height="85" xmlns="http://www.w3.org/2000/svg" >
<defs><marker id="arrowhead" markerWidth="10" markerHeight="7" refX="0" refY="3.5" orient="auto"><polygon points="0 0, 10 3.5, 0 7" /></marker></defs>


<path d="M 10 60 h 580 v 20 h -580 v -20" stroke="#000000" stroke-width="1" fill="none"/>
<path d="M 30 60 v 20" stroke="#000000" stroke-width="1" fill="none"/>
<path d="M 50 60 v 20" stroke="#000000" stroke-width="1" fill="none"/>
<path d="M 70 60 v 20" stroke="#000000" stroke-width="1" fill="none"/>
<path d="M 90 60 v 20" stroke="#000000" stroke-width="1" fill="none"/>
<path d="M 110 60 v 20" stroke="#000000" stroke-width="1" fill="none"/>
<path d="M 130 60 v 20" stroke="#000000" stroke-width="1" fill="none"/>
<path d="M 150 60 v 20" stroke="#000000" stroke-width="1" fill="none"/>
<path d="M 170 60 v 20" stroke="#000000" stroke-width="1" fill="none"/>
<path d="M 190 60 v 20" stroke="#000000" stroke-width="1" fill="none"/>
<path d="M 210 60 v 20" stroke="#000000" stroke-width="1" fill="none"/>
<path d="M 230 60 v 20" stroke="#000000" stroke-width="1" fill="none"/>
<path d="M 250 60 v 20" stroke="#000000" stroke-width="1" fill="none"/>
<path d="M 270 60 v 20" stroke="#000000" stroke-width="1" fill="none"/>
<path d="M 290 60 v 20" stroke="#000000" stroke-width="1" fill="none"/>
<path d="M 310 60 v 20" stroke="#000000" stroke-width="1" fill="none"/>
<path d="M 330 60 v 20" stroke="#000000" stroke-width="1" fill="none"/>
<path d="M 350 60 v 20" stroke="#000000" stroke-width="1" fill="none"/>
<path d="M 370 60 v 20" stroke="#000000" stroke-width="1" fill="none"/>
<path d="M 390 60 v 20" stroke="#000000" stroke-width="1" fill="none"/>
<path d="M 410 60 v 20" stroke="#000000" stroke-width="1" fill="none"/>
<path d="M 430 60 v 20" stroke="#000000" stroke-width="1" fill="none"/>
<path d="M 450 60 v 20" stroke="#000000" stroke-width="1" fill="none"/>
<path d="M 470 60 v 20" stroke="#000000" stroke-width="1" fill="none"/>
<path d="M 490 60 v 20" stroke="#000000" stroke-width="1" fill="none"/>
<path d="M 510 60 v 20" stroke="#000000" stroke-width="1" fill="none"/>
<path d="M 530 60 v 20" stroke="#000000" stroke-width="1" fill="none"/>
<path d="M 550 60 v 20" stroke="#000000" stroke-width="1" fill="none"/>
<path d="M 570 60 v 20" stroke="#000000" stroke-width="1" fill="none"/>

<text x="15" y="55" style="font-size:13px;font-family:'Arial'">0</text>
<text x="35" y="55" style="font-size:13px;font-family:'Arial'">1</text>
<text x="55" y="55" style="font-size:13px;font-family:'Arial'">2</text>
<text x="75" y="55" style="font-size:13px;font-family:'Arial'">3</text>
<text x="95" y="55" style="font-size:13px;font-family:'Arial'">4</text>
<text x="115" y="55" style="font-size:13px;font-family:'Arial'">5</text>
<text x="135" y="55" style="font-size:13px;font-family:'Arial'">6</text>
<text x="155" y="55" style="font-size:13px;font-family:'Arial'">7</text>
<text x="175" y="55" style="font-size:13px;font-family:'Arial'">8</text>
<text x="195" y="55" style="font-size:13px;font-family:'Arial'">9</text>

<!--
<path d="M 400 35 v 5 a 5 5 0 0 0 5 5 h 40 a 5 5 0 0 1 5 5 a 5 5 0 0 1 5 -5 h 40 a 5 5 0 0 0 5 -5 v -5" stroke="#000000" stroke-width="1" fill="none"/>

<text x="420" y="65" style="font-size:13px;font-family:'Microsoft Yahei UI'">一个字节</text>

<text x="245" y="25" style="font-size:13px;font-family:'Arial'">X</text>
<text x="345" y="25" style="font-size:13px;font-family:'Arial'">Y</text>
<text x="445" y="25" style="font-size:13px;font-family:'Arial'">Z</text>
-->
</svg>
