<svg version="1.1" width="600" height="360" xmlns="http://www.w3.org/2000/svg" >
<defs><marker id="arrowhead" markerWidth="10" markerHeight="7" refX="0" refY="3.5" orient="auto"><polygon points="0 0, 10 3.5, 0 7" /></marker></defs>

<path d="M 21 60 h 558 v 100 h -558 v -100" stroke="#000000" stroke-width="1" fill="none"/>
<path d="M 83 60 v 100" stroke="#000000" stroke-width="1" fill="none"/>
<path d="M 145 60 v 100" stroke="#000000" stroke-width="1" fill="none"/>
<path d="M 207 60 v 100" stroke="#000000" stroke-width="1" fill="none"/>
<path d="M 269 60 v 100" stroke="#000000" stroke-width="1" fill="none"/>
<path d="M 331 60 v 100" stroke="#000000" stroke-width="1" fill="none"/>
<path d="M 455 60 v 100" stroke="#000000" stroke-width="1" fill="none"/>
<path d="M 517 60 v 100" stroke="#000000" stroke-width="1" fill="none"/>

<text x="347" y="115" style="font-size:53px;font-family:'Arial'">......</text>

<path d="M 21 55 v -5 a 5 5 0 0 1 5 -5 h 269 a 5 5 0 0 0 5 -5 a 5 5 0 0 0 5 5 h 269 a 5 5 0 0 1 5 5 v 5" stroke="#000000" stroke-width="1" fill="none" />
<path d="M 21 165 v 5 a 5 5 0 0 0 5 5 h 21 a 5 5 0 0 1 5 5 a 5 5 0 0 1 5 -5 h 21 a 5 5 0 0 0 5 -5 v -5" stroke="#000000" stroke-width="1" fill="none" />
<text x="30" y="192" style="font-size:13px;font-family:'Courier New'">BLCKSZ</text>

<text x="280" y="37" style="font-size:13px;font-family:'Arial'">1 GB</text>
<text x="47" y="120" style="font-size:19;font-family:'Arial'">0</text>
<text x="109" y="120" style="font-size:19;font-family:'Arial'">1</text>
<text x="171" y="120" style="font-size:19;font-family:'Arial'">2</text>
<text x="233" y="120" style="font-size:19;font-family:'Arial'">3</text>
<text x="295" y="120" style="font-size:19;font-family:'Arial'">4</text>

<!-- 
<path d="M 100 60 H 500" stroke="#000000" stroke-width="1" fill="none" marker-end="url(#arrowhead)" />
<path d="M 300 60 v 40 H 500" stroke="#000000" stroke-width="1" fill="none" marker-end="url(#arrowhead)" />

<circle cx="300" cy="60" r="3" fill="#000000" />


<path d="M 397 90 h -5 a 5 5 0 0 0 -5 5 v 10 a 5 5 0 0 1 -5 5 a 5 5 0 0 1 5 5 v 10 a 5 5 0 0 0 5 5 h 5" stroke="#000000" stroke-width="1" fill="none"/>


<g transform="translate(0, 0)">
<path d="M 502 20 h 5 a 5 5 0 0 1 5 5 v 20 a 5 5 0 0 0 5 5 a 5 5 0 0 0 -5 5 v 10 a 5 5 0 0 1 -5 5 h -5" stroke="#000000" stroke-width="1" fill="none"/>
</g>

<path d="M 0 5 a 5 5 0 0 1 5 -5 h 52 a 5 5 0 0 1 5 5 v 90 a 5 5 0 0 1 -5 5 h -52 a 5 5 0 0 1 -5 -5 v -90" stroke="#0000FF" stroke-width="1" fill="none" />



<path d="M 160 106 V 92" stroke="#000000" stroke-width="1" fill="none" marker-end="url(#arrowhead)" />

-->
</svg>
