<svg version="1.1" width="600" height="360" xmlns="http://www.w3.org/2000/svg" >
<defs><marker id="arrowhead" markerWidth="10" markerHeight="7" refX="0" refY="3.5" orient="auto"><polygon points="0 0, 10 3.5, 0 7" /></marker></defs>

<g transform="translate(0, 0)">

<path d="M 60 60 h 480 v 30 h -480 v -30" stroke="#000000" stroke-width="1" fill="none"/>
<path d="M 75 60 v 30" stroke="#000000" stroke-width="1" fill="none"/>
<path d="M 90 60 v 30" stroke="#000000" stroke-width="1" fill="none"/>
<path d="M 105 60 v 30" stroke="#000000" stroke-width="1" fill="none"/>
<path d="M 120 60 v 30" stroke="#000000" stroke-width="1" fill="none"/>
<path d="M 135 60 v 30" stroke="#000000" stroke-width="1" fill="none"/>
<path d="M 150 60 v 30" stroke="#000000" stroke-width="1" fill="none"/>
<path d="M 165 60 v 30" stroke="#000000" stroke-width="1" fill="none"/>
<path d="M 180 60 v 30" stroke="#000000" stroke-width="1" fill="none"/>
<path d="M 195 60 v 30" stroke="#000000" stroke-width="1" fill="none"/>
<path d="M 210 60 v 30" stroke="#000000" stroke-width="1" fill="none"/>
<path d="M 225 60 v 30" stroke="#000000" stroke-width="1" fill="none"/>
<path d="M 240 60 v 30" stroke="#000000" stroke-width="1" fill="none"/>
<path d="M 255 60 v 30" stroke="#000000" stroke-width="1" fill="none"/>
<path d="M 270 60 v 30" stroke="#000000" stroke-width="1" fill="none"/>
<path d="M 285 60 v 30" stroke="#000000" stroke-width="1" fill="none"/>
<path d="M 300 60 v 30" stroke="#000000" stroke-width="1" fill="none"/>
<path d="M 315 60 v 30" stroke="#000000" stroke-width="1" fill="none"/>
<path d="M 330 60 v 30" stroke="#000000" stroke-width="1" fill="none"/>
<path d="M 345 60 v 30" stroke="#000000" stroke-width="1" fill="none"/>
<path d="M 360 60 v 30" stroke="#000000" stroke-width="1" fill="none"/>
<path d="M 375 60 v 30" stroke="#000000" stroke-width="1" fill="none"/>
<path d="M 390 60 v 30" stroke="#000000" stroke-width="1" fill="none"/>
<path d="M 405 60 v 30" stroke="#000000" stroke-width="1" fill="none"/>
<path d="M 420 60 v 30" stroke="#000000" stroke-width="1" fill="none"/>
<path d="M 435 60 v 30" stroke="#000000" stroke-width="1" fill="none"/>
<path d="M 450 60 v 30" stroke="#000000" stroke-width="1" fill="none"/>
<path d="M 465 60 v 30" stroke="#000000" stroke-width="1" fill="none"/>
<path d="M 480 60 v 30" stroke="#000000" stroke-width="1" fill="none"/>
<path d="M 495 60 v 30" stroke="#000000" stroke-width="1" fill="none"/>
<path d="M 510 60 v 30" stroke="#000000" stroke-width="1" fill="none"/>
<path d="M 525 60 v 30" stroke="#000000" stroke-width="1" fill="none"/>

<path d="M 60 55 v -5 a 5 5 0 0 1 5 -5 h 103 a 5 5 0 0 0 5 -5 a 5 5 0 0 0 5 5 h 102 a 5 5 0 0 1 5 5 v 5" stroke="#000000" stroke-width="1" fill="none" />
<path d="M 315 55 v -5 a 5 5 0 0 1 5 -5 h 103 a 5 5 0 0 0 5 -5 a 5 5 0 0 0 5 5 h 102 a 5 5 0 0 1 5 5 v 5" stroke="#000000" stroke-width="1" fill="none" />
<path d="M 285 95 v 5 a 5 5 0 0 0 5 5 h 5 a 5 5 0 0 1 5 5 a 5 5 0 0 1 5 -5 h 5 a 5 5 0 0 0 5 -5 v -5" stroke="#000000" stroke-width="1" fill="none" />

<text x="150" y="30" style="font-size:13px;font-family:'Courier New'">lp_off</text>
<text x="402" y="30" style="font-size:13px;font-family:'Courier New'">lp_len</text>
<text x="270" y="125" style="font-size:13px;font-family:'Courier New'">lp_flags</text>

<text x="64" y="80" style="font-size:13px;font-family:'Arial'">0</text>
<text x="79" y="80" style="font-size:13px;font-family:'Arial'">1</text>
<text x="94" y="80" style="font-size:13px;font-family:'Arial'">1</text>
<text x="109" y="80" style="font-size:13px;font-family:'Arial'">0</text>
<text x="124" y="80" style="font-size:13px;font-family:'Arial'">1</text>
<text x="139" y="80" style="font-size:13px;font-family:'Arial'">1</text>
<text x="154" y="80" style="font-size:13px;font-family:'Arial'">1</text>
<text x="169" y="80" style="font-size:13px;font-family:'Arial'">0</text>
<text x="184" y="80" style="font-size:13px;font-family:'Arial'">0</text>
<text x="199" y="80" style="font-size:13px;font-family:'Arial'">1</text>
<text x="214" y="80" style="font-size:13px;font-family:'Arial'">1</text>
<text x="229" y="80" style="font-size:13px;font-family:'Arial'">0</text>
<text x="244" y="80" style="font-size:13px;font-family:'Arial'">1</text>
<text x="259" y="80" style="font-size:13px;font-family:'Arial'">0</text>
<text x="274" y="80" style="font-size:13px;font-family:'Arial'">1</text>
<text x="289" y="80" style="font-size:13px;font-family:'Arial'">0</text>
<text x="304" y="80" style="font-size:13px;font-family:'Arial'">1</text>
<text x="319" y="80" style="font-size:13px;font-family:'Arial'">0</text>
<text x="334" y="80" style="font-size:13px;font-family:'Arial'">1</text>
<text x="349" y="80" style="font-size:13px;font-family:'Arial'">1</text>
<text x="364" y="80" style="font-size:13px;font-family:'Arial'">1</text>
<text x="379" y="80" style="font-size:13px;font-family:'Arial'">0</text>
<text x="394" y="80" style="font-size:13px;font-family:'Arial'">0</text>
<text x="409" y="80" style="font-size:13px;font-family:'Arial'">1</text>
<text x="424" y="80" style="font-size:13px;font-family:'Arial'">1</text>
<text x="439" y="80" style="font-size:13px;font-family:'Arial'">0</text>
<text x="454" y="80" style="font-size:13px;font-family:'Arial'">1</text>
<text x="469" y="80" style="font-size:13px;font-family:'Arial'">0</text>
<text x="484" y="80" style="font-size:13px;font-family:'Arial'">0</text>
<text x="499" y="80" style="font-size:13px;font-family:'Arial'">0</text>
<text x="514" y="80" style="font-size:13px;font-family:'Arial'">0</text>
<text x="529" y="80" style="font-size:13px;font-family:'Arial'">0</text>

</g>

<!-- 
<path d="M 100 60 H 500" stroke="#000000" stroke-width="1" fill="none" marker-end="url(#arrowhead)" />
<path d="M 300 60 v 40 H 500" stroke="#000000" stroke-width="1" fill="none" marker-end="url(#arrowhead)" />

<circle cx="300" cy="60" r="3" fill="#000000" />


<path d="M 397 90 h -5 a 5 5 0 0 0 -5 5 v 10 a 5 5 0 0 1 -5 5 a 5 5 0 0 1 5 5 v 10 a 5 5 0 0 0 5 5 h 5" stroke="#000000" stroke-width="1" fill="none"/>


<path d="M 502 20 h 5 a 5 5 0 0 1 5 5 v 20 a 5 5 0 0 0 5 5 a 5 5 0 0 0 -5 5 v 10 a 5 5 0 0 1 -5 5 h -5" stroke="#000000" stroke-width="1" fill="none"/>
</g>

<path d="M 0 5 a 5 5 0 0 1 5 -5 h 52 a 5 5 0 0 1 5 5 v 90 a 5 5 0 0 1 -5 5 h -52 a 5 5 0 0 1 -5 -5 v -90" stroke="#0000FF" stroke-width="1" fill="none" />



<path d="M 160 106 V 92" stroke="#000000" stroke-width="1" fill="none" marker-end="url(#arrowhead)" />

<text x="138" y="120" style="font-size:13px;font-family:'Arial'">one byte</text>
-->
</svg>
