<svg version="1.1" width="600" height="480" xmlns="http://www.w3.org/2000/svg" >
<defs><marker id="arrowhead" markerWidth="10" markerHeight="7" refX="0" refY="3.5" orient="auto"><polygon points="0 0, 10 3.5, 0 7" /></marker></defs>


<g transform="translate(0, -20)">
<text x="510" y="395" style="font-size:13px;font-family:'Arial'">shared memory</text>
<text x="55" y="93" style="font-size:13px;font-family:'Arial'">private memory</text>


<ellipse cx="100" cy="320" rx="50" ry="20" style="fill:#F0F0F0;stroke:#0000FF;stroke-width:1" />
<ellipse cx="200" cy="280" rx="50" ry="20" style="fill:#FFFFFF;stroke:#0000FF;stroke-width:1" />
<ellipse cx="300" cy="320" rx="50" ry="20" style="fill:#FFFFFF;stroke:#0000FF;stroke-width:1" />
<ellipse cx="400" cy="280" rx="50" ry="20" style="fill:#FFFFFF;stroke:#0000FF;stroke-width:1" />
<ellipse cx="500" cy="320" rx="50" ry="20" style="fill:#FFFFFF;stroke:#0000FF;stroke-width:1" />

<path d="M 100 370 V 388" stroke="#000000" stroke-width="1" fill="none" marker-end="url(#arrowhead)" />
<path d="M 200 370 V 388" stroke="#000000" stroke-width="1" fill="none" marker-end="url(#arrowhead)" />
<path d="M 300 370 V 388" stroke="#000000" stroke-width="1" fill="none" marker-end="url(#arrowhead)" />
<path d="M 400 370 V 388" stroke="#000000" stroke-width="1" fill="none" marker-end="url(#arrowhead)" />
<path d="M 500 370 V 388" stroke="#000000" stroke-width="1" fill="none" marker-end="url(#arrowhead)" />

<path d="M 100 370 V 352" stroke="#000000" stroke-width="1" fill="none" marker-end="url(#arrowhead)" />
<path d="M 200 370 V 312" stroke="#000000" stroke-width="1" fill="none" marker-end="url(#arrowhead)" />
<path d="M 300 370 V 352" stroke="#000000" stroke-width="1" fill="none" marker-end="url(#arrowhead)" />
<path d="M 400 370 V 312" stroke="#000000" stroke-width="1" fill="none" marker-end="url(#arrowhead)" />
<path d="M 500 370 V 352" stroke="#000000" stroke-width="1" fill="none" marker-end="url(#arrowhead)" />

<path d="M 69 100 h 62 v 100 h -62 v -100" stroke="#000000" stroke-width="1" fill="none"/>
<path d="M 169 100 h 62 v 100 h -62 v -100" stroke="#000000" stroke-width="1" fill="none"/>
<path d="M 269 100 h 62 v 100 h -62 v -100" stroke="#000000" stroke-width="1" fill="none"/>
<path d="M 369 100 h 62 v 100 h -62 v -100" stroke="#000000" stroke-width="1" fill="none"/>
<path d="M 469 100 h 62 v 100 h -62 v -100" stroke="#000000" stroke-width="1" fill="none"/>

<path d="M 100 240 V 212" stroke="#000000" stroke-width="1" fill="none" marker-end="url(#arrowhead)" />
<path d="M 200 240 V 212" stroke="#000000" stroke-width="1" fill="none" marker-end="url(#arrowhead)" />
<path d="M 300 240 V 212" stroke="#000000" stroke-width="1" fill="none" marker-end="url(#arrowhead)" />
<path d="M 400 240 V 212" stroke="#000000" stroke-width="1" fill="none" marker-end="url(#arrowhead)" />
<path d="M 500 240 V 212" stroke="#000000" stroke-width="1" fill="none" marker-end="url(#arrowhead)" />

<path d="M 100 240 V 288" stroke="#000000" stroke-width="1" fill="none" marker-end="url(#arrowhead)" />
<path d="M 200 240 V 248" stroke="#000000" stroke-width="1" fill="none" marker-end="url(#arrowhead)" />
<path d="M 300 240 V 288" stroke="#000000" stroke-width="1" fill="none" marker-end="url(#arrowhead)" />
<path d="M 400 240 V 248" stroke="#000000" stroke-width="1" fill="none" marker-end="url(#arrowhead)" />
<path d="M 500 240 V 288" stroke="#000000" stroke-width="1" fill="none" marker-end="url(#arrowhead)" />

<path d="M 10 400 h 580 v 20 h -580 v -20" stroke="#000000" stroke-width="1" fill="none"/>
<path d="M 15 400 v 20" stroke="#000000" stroke-width="1" fill="none"/>
<path d="M 20 400 v 20" stroke="#000000" stroke-width="1" fill="none"/>
<path d="M 25 400 v 20" stroke="#000000" stroke-width="1" fill="none"/>
<path d="M 30 400 v 20" stroke="#000000" stroke-width="1" fill="none"/>
<path d="M 35 400 v 20" stroke="#000000" stroke-width="1" fill="none"/>
<path d="M 40 400 v 20" stroke="#000000" stroke-width="1" fill="none"/>
<path d="M 45 400 v 20" stroke="#000000" stroke-width="1" fill="none"/>
<path d="M 50 400 v 20" stroke="#000000" stroke-width="1" fill="none"/>
<path d="M 55 400 v 20" stroke="#000000" stroke-width="1" fill="none"/>
<path d="M 60 400 v 20" stroke="#000000" stroke-width="1" fill="none"/>
<path d="M 65 400 v 20" stroke="#000000" stroke-width="1" fill="none"/>
<path d="M 70 400 v 20" stroke="#000000" stroke-width="1" fill="none"/>
<path d="M 75 400 v 20" stroke="#000000" stroke-width="1" fill="none"/>
<path d="M 80 400 v 20" stroke="#000000" stroke-width="1" fill="none"/>
<path d="M 85 400 v 20" stroke="#000000" stroke-width="1" fill="none"/>
<path d="M 90 400 v 20" stroke="#000000" stroke-width="1" fill="none"/>
<path d="M 95 400 v 20" stroke="#000000" stroke-width="1" fill="none"/>
<path d="M 100 400 v 20" stroke="#000000" stroke-width="1" fill="none"/>
<path d="M 105 400 v 20" stroke="#000000" stroke-width="1" fill="none"/>
<path d="M 110 400 v 20" stroke="#000000" stroke-width="1" fill="none"/>
<path d="M 115 400 v 20" stroke="#000000" stroke-width="1" fill="none"/>
<path d="M 120 400 v 20" stroke="#000000" stroke-width="1" fill="none"/>
<path d="M 125 400 v 20" stroke="#000000" stroke-width="1" fill="none"/>
<path d="M 130 400 v 20" stroke="#000000" stroke-width="1" fill="none"/>
<path d="M 135 400 v 20" stroke="#000000" stroke-width="1" fill="none"/>
<path d="M 140 400 v 20" stroke="#000000" stroke-width="1" fill="none"/>
<path d="M 145 400 v 20" stroke="#000000" stroke-width="1" fill="none"/>
<path d="M 150 400 v 20" stroke="#000000" stroke-width="1" fill="none"/>
<path d="M 155 400 v 20" stroke="#000000" stroke-width="1" fill="none"/>
<path d="M 160 400 v 20" stroke="#000000" stroke-width="1" fill="none"/>
<path d="M 165 400 v 20" stroke="#000000" stroke-width="1" fill="none"/>
<path d="M 170 400 v 20" stroke="#000000" stroke-width="1" fill="none"/>
<path d="M 175 400 v 20" stroke="#000000" stroke-width="1" fill="none"/>
<path d="M 180 400 v 20" stroke="#000000" stroke-width="1" fill="none"/>
<path d="M 185 400 v 20" stroke="#000000" stroke-width="1" fill="none"/>
<path d="M 190 400 v 20" stroke="#000000" stroke-width="1" fill="none"/>
<path d="M 195 400 v 20" stroke="#000000" stroke-width="1" fill="none"/>
<path d="M 200 400 v 20" stroke="#000000" stroke-width="1" fill="none"/>
<path d="M 205 400 v 20" stroke="#000000" stroke-width="1" fill="none"/>
<path d="M 210 400 v 20" stroke="#000000" stroke-width="1" fill="none"/>
<path d="M 215 400 v 20" stroke="#000000" stroke-width="1" fill="none"/>
<path d="M 220 400 v 20" stroke="#000000" stroke-width="1" fill="none"/>
<path d="M 225 400 v 20" stroke="#000000" stroke-width="1" fill="none"/>
<path d="M 230 400 v 20" stroke="#000000" stroke-width="1" fill="none"/>
<path d="M 235 400 v 20" stroke="#000000" stroke-width="1" fill="none"/>
<path d="M 240 400 v 20" stroke="#000000" stroke-width="1" fill="none"/>
<path d="M 245 400 v 20" stroke="#000000" stroke-width="1" fill="none"/>
<path d="M 250 400 v 20" stroke="#000000" stroke-width="1" fill="none"/>
<path d="M 255 400 v 20" stroke="#000000" stroke-width="1" fill="none"/>
<path d="M 260 400 v 20" stroke="#000000" stroke-width="1" fill="none"/>
<path d="M 265 400 v 20" stroke="#000000" stroke-width="1" fill="none"/>
<path d="M 270 400 v 20" stroke="#000000" stroke-width="1" fill="none"/>
<path d="M 275 400 v 20" stroke="#000000" stroke-width="1" fill="none"/>
<path d="M 280 400 v 20" stroke="#000000" stroke-width="1" fill="none"/>
<path d="M 285 400 v 20" stroke="#000000" stroke-width="1" fill="none"/>
<path d="M 290 400 v 20" stroke="#000000" stroke-width="1" fill="none"/>
<path d="M 295 400 v 20" stroke="#000000" stroke-width="1" fill="none"/>
<path d="M 300 400 v 20" stroke="#000000" stroke-width="1" fill="none"/>
<path d="M 305 400 v 20" stroke="#000000" stroke-width="1" fill="none"/>
<path d="M 310 400 v 20" stroke="#000000" stroke-width="1" fill="none"/>
<path d="M 315 400 v 20" stroke="#000000" stroke-width="1" fill="none"/>
<path d="M 320 400 v 20" stroke="#000000" stroke-width="1" fill="none"/>
<path d="M 325 400 v 20" stroke="#000000" stroke-width="1" fill="none"/>
<path d="M 330 400 v 20" stroke="#000000" stroke-width="1" fill="none"/>
<path d="M 335 400 v 20" stroke="#000000" stroke-width="1" fill="none"/>
<path d="M 340 400 v 20" stroke="#000000" stroke-width="1" fill="none"/>
<path d="M 345 400 v 20" stroke="#000000" stroke-width="1" fill="none"/>
<path d="M 350 400 v 20" stroke="#000000" stroke-width="1" fill="none"/>
<path d="M 355 400 v 20" stroke="#000000" stroke-width="1" fill="none"/>
<path d="M 360 400 v 20" stroke="#000000" stroke-width="1" fill="none"/>
<path d="M 365 400 v 20" stroke="#000000" stroke-width="1" fill="none"/>
<path d="M 370 400 v 20" stroke="#000000" stroke-width="1" fill="none"/>
<path d="M 375 400 v 20" stroke="#000000" stroke-width="1" fill="none"/>
<path d="M 380 400 v 20" stroke="#000000" stroke-width="1" fill="none"/>
<path d="M 385 400 v 20" stroke="#000000" stroke-width="1" fill="none"/>
<path d="M 390 400 v 20" stroke="#000000" stroke-width="1" fill="none"/>
<path d="M 395 400 v 20" stroke="#000000" stroke-width="1" fill="none"/>
<path d="M 400 400 v 20" stroke="#000000" stroke-width="1" fill="none"/>
<path d="M 405 400 v 20" stroke="#000000" stroke-width="1" fill="none"/>
<path d="M 410 400 v 20" stroke="#000000" stroke-width="1" fill="none"/>
<path d="M 415 400 v 20" stroke="#000000" stroke-width="1" fill="none"/>
<path d="M 420 400 v 20" stroke="#000000" stroke-width="1" fill="none"/>
<path d="M 425 400 v 20" stroke="#000000" stroke-width="1" fill="none"/>
<path d="M 430 400 v 20" stroke="#000000" stroke-width="1" fill="none"/>
<path d="M 435 400 v 20" stroke="#000000" stroke-width="1" fill="none"/>
<path d="M 440 400 v 20" stroke="#000000" stroke-width="1" fill="none"/>
<path d="M 445 400 v 20" stroke="#000000" stroke-width="1" fill="none"/>
<path d="M 450 400 v 20" stroke="#000000" stroke-width="1" fill="none"/>
<path d="M 455 400 v 20" stroke="#000000" stroke-width="1" fill="none"/>
<path d="M 460 400 v 20" stroke="#000000" stroke-width="1" fill="none"/>
<path d="M 465 400 v 20" stroke="#000000" stroke-width="1" fill="none"/>
<path d="M 470 400 v 20" stroke="#000000" stroke-width="1" fill="none"/>
<path d="M 475 400 v 20" stroke="#000000" stroke-width="1" fill="none"/>
<path d="M 480 400 v 20" stroke="#000000" stroke-width="1" fill="none"/>
<path d="M 485 400 v 20" stroke="#000000" stroke-width="1" fill="none"/>
<path d="M 490 400 v 20" stroke="#000000" stroke-width="1" fill="none"/>
<path d="M 495 400 v 20" stroke="#000000" stroke-width="1" fill="none"/>
<path d="M 500 400 v 20" stroke="#000000" stroke-width="1" fill="none"/>
<path d="M 505 400 v 20" stroke="#000000" stroke-width="1" fill="none"/>
<path d="M 510 400 v 20" stroke="#000000" stroke-width="1" fill="none"/>
<path d="M 515 400 v 20" stroke="#000000" stroke-width="1" fill="none"/>
<path d="M 520 400 v 20" stroke="#000000" stroke-width="1" fill="none"/>
<path d="M 525 400 v 20" stroke="#000000" stroke-width="1" fill="none"/>
<path d="M 530 400 v 20" stroke="#000000" stroke-width="1" fill="none"/>
<path d="M 535 400 v 20" stroke="#000000" stroke-width="1" fill="none"/>
<path d="M 540 400 v 20" stroke="#000000" stroke-width="1" fill="none"/>
<path d="M 545 400 v 20" stroke="#000000" stroke-width="1" fill="none"/>
<path d="M 550 400 v 20" stroke="#000000" stroke-width="1" fill="none"/>
<path d="M 555 400 v 20" stroke="#000000" stroke-width="1" fill="none"/>
<path d="M 560 400 v 20" stroke="#000000" stroke-width="1" fill="none"/>
<path d="M 565 400 v 20" stroke="#000000" stroke-width="1" fill="none"/>
<path d="M 570 400 v 20" stroke="#000000" stroke-width="1" fill="none"/>
<path d="M 575 400 v 20" stroke="#000000" stroke-width="1" fill="none"/>
<path d="M 580 400 v 20" stroke="#000000" stroke-width="1" fill="none"/>
<path d="M 585 400 v 20" stroke="#000000" stroke-width="1" fill="none"/>

<path d="M 100 422 v 5 a 5 5 0 0 0 5 5 h 100 a 5 5 0 0 1 5 5 a 5 5 0 0 1 5 -5 h 100 a 5 5 0 0 0 5 -5 v -5" stroke="#000000" stroke-width="1" fill="none" />
<path d="M 400 422 v 5 a 5 5 0 0 0 5 5 h 40 a 5 5 0 0 1 5 5 a 5 5 0 0 1 5 -5 h 40 a 5 5 0 0 0 5 -5 v -5" stroke="#000000" stroke-width="1" fill="none" />

<text x="170" y="450" style="font-size:13px;font-family:'Arial'">shared buffer</text>
<text x="420" y="450" style="font-size:13px;font-family:'Arial'">WAL buffer</text>
<text x="175" y="285" style="font-size:13px;font-family:'Arial'">process1</text>
<text x="375" y="285" style="font-size:13px;font-family:'Arial'">process3</text>
<text x="275" y="325" style="font-size:13px;font-family:'Arial'">process3</text>
<text x="475" y="325" style="font-size:13px;font-family:'Arial'">process4</text>
<text x="70" y="325" style="font-size:13px;font-family:'Arial'">postmaster</text>
</g>
<!-- 
<path d="M 100 60 H 500" stroke="#000000" stroke-width="1" fill="none" marker-end="url(#arrowhead)" />
<path d="M 300 60 v 40 H 500" stroke="#000000" stroke-width="1" fill="none" marker-end="url(#arrowhead)" />

<circle cx="300" cy="60" r="3" fill="#000000" />


<path d="M 397 90 h -5 a 5 5 0 0 0 -5 5 v 10 a 5 5 0 0 1 -5 5 a 5 5 0 0 1 5 5 v 10 a 5 5 0 0 0 5 5 h 5" stroke="#000000" stroke-width="1" fill="none"/>


<path d="M 502 20 h 5 a 5 5 0 0 1 5 5 v 20 a 5 5 0 0 0 5 5 a 5 5 0 0 0 -5 5 v 10 a 5 5 0 0 1 -5 5 h -5" stroke="#000000" stroke-width="1" fill="none"/>
<path d="M 20 38 v -5 a 5 5 0 0 1 5 -5 h 40 a 5 5 0 0 0 5 -5 a 5 5 0 0 0 5 5 h 40 a 5 5 0 0 1 5 5 v 5" stroke="#000000" stroke-width="1" fill="none" />
</g>

<path d="M 0 5 a 5 5 0 0 1 5 -5 h 52 a 5 5 0 0 1 5 5 v 90 a 5 5 0 0 1 -5 5 h -52 a 5 5 0 0 1 -5 -5 v -90" stroke="#0000FF" stroke-width="1" fill="none" />


<text x="530" y="55" style="font-size:13px;font-family:'Courier New'">n-3</text>


-->
</svg>
