<svg version="1.1" width="600" height="360" xmlns="http://www.w3.org/2000/svg" >
<defs><marker id="arrowhead" markerWidth="10" markerHeight="7" refX="0" refY="3.5" orient="auto"><polygon points="0 0, 10 3.5, 0 7" /></marker></defs>

<g transform="translate(0, 50)">

<path d="M 400 60 h 100 v 20 h -100 v -20" stroke="#000000" stroke-width="1" fill="#EEEEEE"/>
<path d="M 400 60 h -300 v 20 h 300" stroke="#000000" stroke-width="1" fill="none"/>

<path d="M 100 55 v -5 a 5 5 0 0 1 5 -5 h 140 a 5 5 0 0 0 5 -5 a 5 5 0 0 0 5 5 h 140 a 5 5 0 0 1 5 5 v 5" stroke="#000000" stroke-width="1" fill="none" />

<path d="M 400 85 v 5 a 5 5 0 0 0 5 5 h 40 a 5 5 0 0 1 5 5 a 5 5 0 0 1 5 -5 h 40 a 5 5 0 0 0 5 -5 v -5" stroke="#000000" stroke-width="1" fill="none" />

<text x="180" y="35" style="font-size:13px;font-family:'Courier New'">HeapTupleHeaderData</text>

<text x="220" y="73" style="font-size:13px;font-family:'Arial'">23 bytes</text>
<text x="420" y="115" style="font-size:13px;font-family:'Arial'">real data</text>

</g>

<!-- 
<path d="M 100 60 H 500" stroke="#000000" stroke-width="1" fill="none" marker-end="url(#arrowhead)" />
<path d="M 300 60 v 40 H 500" stroke="#000000" stroke-width="1" fill="none" marker-end="url(#arrowhead)" />

<circle cx="300" cy="60" r="3" fill="#000000" />


<path d="M 397 90 h -5 a 5 5 0 0 0 -5 5 v 10 a 5 5 0 0 1 -5 5 a 5 5 0 0 1 5 5 v 10 a 5 5 0 0 0 5 5 h 5" stroke="#000000" stroke-width="1" fill="none"/>


<path d="M 502 20 h 5 a 5 5 0 0 1 5 5 v 20 a 5 5 0 0 0 5 5 a 5 5 0 0 0 -5 5 v 10 a 5 5 0 0 1 -5 5 h -5" stroke="#000000" stroke-width="1" fill="none"/>
</g>

<path d="M 0 5 a 5 5 0 0 1 5 -5 h 52 a 5 5 0 0 1 5 5 v 90 a 5 5 0 0 1 -5 5 h -52 a 5 5 0 0 1 -5 -5 v -90" stroke="#0000FF" stroke-width="1" fill="none" />



<path d="M 160 106 V 92" stroke="#000000" stroke-width="1" fill="none" marker-end="url(#arrowhead)" />

<text x="138" y="120" style="font-size:13px;font-family:'Arial'">one byte</text>
-->
</svg>
