<svg version="1.1" width="600" height="360" xmlns="http://www.w3.org/2000/svg" >
<defs><marker id="arrowhead" markerWidth="10" markerHeight="7" refX="0" refY="3.5" orient="auto"><polygon points="0 0, 10 3.5, 0 7" /></marker></defs>

<g transform="translate(0, 20)">

<path d="M 10 60 h 580" stroke="#000000" stroke-width="5" fill="none"/>
<path d="M 10 30 v 80" stroke="#000000" stroke-width="1" stroke-dasharray="2 2 2" fill="none"/>
<path d="M 110 30 v 80" stroke="#000000" stroke-width="1" stroke-dasharray="2 2 2" fill="none"/>
<path d="M 210 30 v 80" stroke="#000000" stroke-width="1" stroke-dasharray="2 2 2" fill="none"/>
<path d="M 310 30 v 80" stroke="#000000" stroke-width="1" stroke-dasharray="2 2 2" fill="none"/>
<path d="M 490 30 v 80" stroke="#000000" stroke-width="1" stroke-dasharray="2 2 2" fill="none"/>
<path d="M 590 30 v 80" stroke="#000000" stroke-width="1" stroke-dasharray="2 2 2" fill="none"/>

<path d="M 10 28 v -5 a 5 5 0 0 1 5 -5 h 40 a 5 5 0 0 0 5 -5 a 5 5 0 0 0 5 5 h 40 a 5 5 0 0 1 5 5 v 5" stroke="#000000" stroke-width="1" fill="none" />

<path d="M 210 28 v -5 a 5 5 0 0 1 5 -5 h 40 a 5 5 0 0 0 5 -5 a 5 5 0 0 0 5 5 h 40 a 5 5 0 0 1 5 5 v 5" stroke="#000000" stroke-width="1" fill="none" />

<path d="M 490 28 v -5 a 5 5 0 0 1 5 -5 h 40 a 5 5 0 0 0 5 -5 a 5 5 0 0 0 5 5 h 40 a 5 5 0 0 1 5 5 v 5" stroke="#000000" stroke-width="1" fill="none" />

<path d="M 110 112 v 5 a 5 5 0 0 0 5 5 h 40 a 5 5 0 0 1 5 5 a 5 5 0 0 1 5 -5 h 40 a 5 5 0 0 0 5 -5 v -5" stroke="#000000" stroke-width="1" fill="none" />

<text x="48" y="10" style="font-size:13px;font-family:'Arial'">4GB</text>
<text x="248" y="10" style="font-size:13px;font-family:'Arial'">4GB</text>
<text x="528" y="10" style="font-size:13px;font-family:'Arial'">4GB</text>
<text x="148" y="140" style="font-size:13px;font-family:'Arial'">4GB</text>

<text x="55" y="55" style="font-size:13px;font-family:'Arial'">0</text>
<text x="155" y="55" style="font-size:13px;font-family:'Arial'">1</text>
<text x="255" y="55" style="font-size:13px;font-family:'Arial'">2</text>
<text x="365" y="50" style="font-size:33px;font-family:'Arial'">......</text>
<text x="510" y="55" style="font-size:13px;font-family:'Arial'">FFFFFFFF</text>

</g>

<!-- 
<path d="M 100 60 H 500" stroke="#000000" stroke-width="1" fill="none" marker-end="url(#arrowhead)" />
<path d="M 100 100 H 500" stroke="#000000" stroke-width="1" fill="none" stroke-dasharray="3 3 3" marker-end="url(#arrowhead)" />

<path d="M 300 60 v 40 H 500" stroke="#000000" stroke-width="1" fill="none" marker-end="url(#arrowhead)" />

<circle cx="300" cy="60" r="3" fill="#000000" />


<path d="M 397 90 h -5 a 5 5 0 0 0 -5 5 v 10 a 5 5 0 0 1 -5 5 a 5 5 0 0 1 5 5 v 10 a 5 5 0 0 0 5 5 h 5" stroke="#000000" stroke-width="1" fill="none"/>


<path d="M 502 20 h 5 a 5 5 0 0 1 5 5 v 20 a 5 5 0 0 0 5 5 a 5 5 0 0 0 -5 5 v 10 a 5 5 0 0 1 -5 5 h -5" stroke="#000000" stroke-width="1" fill="none"/>
<path d="M 20 38 v -5 a 5 5 0 0 1 5 -5 h 40 a 5 5 0 0 0 5 -5 a 5 5 0 0 0 5 5 h 40 a 5 5 0 0 1 5 5 v 5" stroke="#000000" stroke-width="1" fill="none" />
<path d="M 30 166 v 5 a 5 5 0 0 0 5 5 h 30 a 5 5 0 0 1 5 5 a 5 5 0 0 1 5 -5 h 30 a 5 5 0 0 0 5 -5 v -5" stroke="#000000" stroke-width="1" fill="none" />
</g>

<path d="M 0 5 a 5 5 0 0 1 5 -5 h 52 a 5 5 0 0 1 5 5 v 90 a 5 5 0 0 1 -5 5 h -52 a 5 5 0 0 1 -5 -5 v -90" stroke="#0000FF" stroke-width="1" fill="none" />

<path d="M 10 60 h 580 v 20 h -580 v -20" stroke="#000000" stroke-width="1" fill="none"/>
<path d="M 30 60 v 20" stroke="#000000" stroke-width="1" fill="none"/>

<text x="15" y="55" style="font-size:13px;font-family:'Arial'">0</text>
<text x="530" y="55" style="font-size:13px;font-family:'Courier New'">n-3</text>

<path d="M 160 106 V 92" stroke="#000000" stroke-width="1" fill="none" marker-end="url(#arrowhead)" />

<text x="138" y="120" style="font-size:13px;font-family:'Arial'">one byte</text>
-->
</svg>
