<svg version="1.1" width="600" height="360" xmlns="http://www.w3.org/2000/svg" >
<defs><marker id="arrowhead" markerWidth="10" markerHeight="7" refX="0" refY="3.5" orient="auto"><polygon points="0 0, 10 3.5, 0 7" /></marker></defs>

<g transform="translate(10, 10)">
<text x="5" y="55" style="font-size:33px;font-family:'Sans serif'">I</text>
<text x="17" y="55" style="font-size:15px;font-family:'Arial'">0</text>
<path d="M 25 42 h 15" stroke="#000000" stroke-width="1" fill="none" marker-end="url(#arrowhead)" />
</g>

<g transform="translate(60, 10)">
<text x="5" y="55" style="font-size:33px;font-family:'Sans serif'">I</text>
<text x="17" y="55" style="font-size:15px;font-family:'Arial'">1</text>
<path d="M 25 42 h 15" stroke="#000000" stroke-width="1" fill="none" marker-end="url(#arrowhead)" />
</g>

<g transform="translate(110, 10)">
<text x="5" y="55" style="font-size:33px;font-family:'Sans serif'">I</text>
<text x="17" y="55" style="font-size:15px;font-family:'Arial'">2</text>
<path d="M 25 42 h 15" stroke="#000000" stroke-width="1" fill="none" marker-end="url(#arrowhead)" />
</g>

<g transform="translate(160, 10)">
<text x="5" y="55" style="font-size:33px;font-family:'Sans serif'">I</text>
<text x="17" y="55" style="font-size:15px;font-family:'Arial'">3</text>
<path d="M 25 42 h 15" stroke="#000000" stroke-width="1" fill="none" marker-end="url(#arrowhead)" />
</g>

<g transform="translate(210, 10)">
<text x="5" y="55" style="font-size:33px;font-family:'Sans serif'">I</text>
<text x="17" y="55" style="font-size:15px;font-family:'Arial'">4</text>
<path d="M 25 42 h 15" stroke="#000000" stroke-width="1" fill="none" marker-end="url(#arrowhead)" />
</g>

<g transform="translate(260, 10)">
<text x="5" y="55" style="font-size:33px;font-family:'Sans serif'">I</text>
<text x="17" y="55" style="font-size:15px;font-family:'Arial'">5</text>
<path d="M 25 42 h 15" stroke="#000000" stroke-width="1" fill="none" marker-end="url(#arrowhead)" />
</g>

<g transform="translate(310, 10)">
<text x="5" y="55" style="font-size:33px;font-family:'Sans serif'">I</text>
<text x="17" y="55" style="font-size:15px;font-family:'Arial'">6</text>
<path d="M 25 42 h 15" stroke="#000000" stroke-width="1" fill="none" marker-end="url(#arrowhead)" />
</g>

<g transform="translate(360, 10)">
<text x="5" y="55" style="font-size:33px;font-family:'Sans serif'">I</text>
<text x="17" y="55" style="font-size:15px;font-family:'Arial'">7</text>
<path d="M 25 42 h 15" stroke="#000000" stroke-width="1" fill="none" marker-end="url(#arrowhead)" />
</g>

<g transform="translate(410, 10)">
<text x="5" y="55" style="font-size:33px;font-family:'Sans serif'">I</text>
<text x="17" y="55" style="font-size:15px;font-family:'Arial'">8</text>
<path d="M 25 42 h 15" stroke="#000000" stroke-width="1" fill="none" marker-end="url(#arrowhead)" />
</g>

<g transform="translate(460, 10)">
<text x="5" y="55" style="font-size:33px;font-family:'Sans serif'">I</text>
<text x="17" y="55" style="font-size:15px;font-family:'Arial'">9</text>
<path d="M 25 42 h 15" stroke="#000000" stroke-width="1" fill="none" marker-end="url(#arrowhead)" />
</g>

<g transform="translate(510, 10)">
<text x="5" y="55" style="font-size:33px;font-family:'Sans serif'">I</text>
<text x="17" y="55" style="font-size:15px;font-family:'Arial'">10</text>
<path d="M 25 42 h 15" stroke="#000000" stroke-width="1" fill="none" marker-end="url(#arrowhead)" />
</g>

<path d="M 10 75 H 575" stroke="#000000" stroke-width="1" fill="none" marker-end="url(#arrowhead)" />
<text x="560" y="90" style="font-size:15px;font-family:'Sans serif'">time</text>

<!-- 
<path d="M 100 60 H 500" stroke="#000000" stroke-width="1" fill="none" marker-end="url(#arrowhead)" />
<path d="M 300 60 v 40 H 500" stroke="#000000" stroke-width="1" fill="none" marker-end="url(#arrowhead)" />

<circle cx="300" cy="60" r="3" fill="#000000" />


<path d="M 397 90 h -5 a 5 5 0 0 0 -5 5 v 10 a 5 5 0 0 1 -5 5 a 5 5 0 0 1 5 5 v 10 a 5 5 0 0 0 5 5 h 5" stroke="#000000" stroke-width="1" fill="none"/>


<g transform="translate(0, 0)">
<path d="M 502 20 h 5 a 5 5 0 0 1 5 5 v 20 a 5 5 0 0 0 5 5 a 5 5 0 0 0 -5 5 v 10 a 5 5 0 0 1 -5 5 h -5" stroke="#000000" stroke-width="1" fill="none"/>
<path d="M 20 38 v -5 a 5 5 0 0 1 5 -5 h 40 a 5 5 0 0 0 5 -5 a 5 5 0 0 0 5 5 h 40 a 5 5 0 0 1 5 5 v 5" stroke="#000000" stroke-width="1" fill="none" />
<path d="M 30 166 v 5 a 5 5 0 0 0 5 5 h 30 a 5 5 0 0 1 5 5 a 5 5 0 0 1 5 -5 h 30 a 5 5 0 0 0 5 -5 v -5" stroke="#000000" stroke-width="1" fill="none" />
</g>

<path d="M 0 5 a 5 5 0 0 1 5 -5 h 52 a 5 5 0 0 1 5 5 v 90 a 5 5 0 0 1 -5 5 h -52 a 5 5 0 0 1 -5 -5 v -90" stroke="#0000FF" stroke-width="1" fill="none" />

<path d="M 10 60 h 580 v 20 h -580 v -20" stroke="#000000" stroke-width="1" fill="none"/>
<path d="M 30 60 v 20" stroke="#000000" stroke-width="1" fill="none"/>

<text x="15" y="55" style="font-size:13px;font-family:'Sans serif'">0</text>
<text x="530" y="55" style="font-size:13px;font-family:'Courier New'">n-3</text>

<path d="M 160 106 V 92" stroke="#000000" stroke-width="1" fill="none" marker-end="url(#arrowhead)" />

<text x="138" y="120" style="font-size:13px;font-family:'Sans serif'">one byte</text>
-->
</svg>
