<svg version="1.1" width="600" height="500" xmlns="http://www.w3.org/2000/svg" >
<defs><marker id="arrowhead" markerWidth="10" markerHeight="7" refX="0" refY="3.5" orient="auto"><polygon points="0 0, 10 3.5, 0 7" /></marker></defs>
  
    <!--矩形1-->
	<rect 
       x="200" y="30"        
       width="200"  height="440"  
       stroke="black"
	   fill="white"
       stroke-width="2"/>
	   
  <rect x="201" y="31" width="198" height="69" fill="silver"/> 
  
  <rect x="201" y="180" width="198" height="90" fill="silver" />
		
  <rect x="201" y="450" width="198" height="19" fill="silver" /> 
	<!--划分线1--> 
	<line x1="200" y1="100" 
        x2="400" y2="100" 
        stroke="black"    
        stroke-width="2"/>
		
	<!--划分线2--> 
	<line x1="200" y1="130" 
        x2="400" y2="130" 
        stroke="black"    
        stroke-width="2"/>
		
	
		
	<!--划分线3 
	<line x1="200" y1="180" 
        x2="400" y2="180" 
        stroke="black"    
        stroke-width="2"/>--> 
	
  <!-- 长虚线 -->
  <line x1="200" y1="180" x2="400" y2="180" 
        stroke="black" stroke-width="2" 
        stroke-dasharray="10,5" />

  <!-- 长虚线 -->
  <line x1="200" y1="270" x2="400" y2="270" 
        stroke="black" stroke-width="2" 
        stroke-dasharray="10,5" />
		
	<!--划分线4 
	<line x1="200" y1="270" 
        x2="400" y2="270" 
        stroke="black"    
        stroke-width="2"/>-->
		
	<!--划分线5--> 
	<line x1="200" y1="330" 
        x2="400" y2="330" 
        stroke="black"    
        stroke-width="2"/>
		
	<!--划分线6--> 
	<line x1="200" y1="370" 
        x2="400" y2="370" 
        stroke="black"    
        stroke-width="2"/>
		
	<!--划分线7--> 
	<line x1="200" y1="410" 
        x2="400" y2="410" 
        stroke="black"    
        stroke-width="2"/>
		
	<!--划分线8--> 
	<line x1="200" y1="450" 
        x2="400" y2="450" 
        stroke="black"    
        stroke-width="2"/>
		
		
  <!-- 长虚线 -->
  <line x1="200" y1="180" x2="400" y2="180" 
        stroke="black" stroke-width="2" 
        stroke-dasharray="10,5" />
		
	
	<!--短箭头1--> 
	<line x1="420" y1="65" 
        x2="445" y2="65" 
        stroke="black"    
        stroke-width="1.5"/>	
	<!--三角形1-->	
    <polygon points="408,65 420,60 420,70" />
	
	
	<!--短箭头2--> 
	<line x1="155" y1="180" 
        x2="180" y2="180" 
        stroke="black"    
        stroke-width="1.5"/>	
	<!--三角形2-->	
    <polygon points="192,180 180,175 180,185" />
	
	
	<!--短箭头3--> 
	<line x1="155" y1="270" 
        x2="180" y2="270" 
        stroke="black"    
        stroke-width="1.5"/>	
	<!--三角形3-->	
    <polygon points="192,270 180,265 180,275" />
	
	
	<!--短箭头4--> 
	<line x1="300" y1="180" 
        x2="300" y2="200" 
        stroke="black"    
        stroke-width="1.5"/>	
	<!--三角形4-->	
    <polygon points="300,212 296,200 304,200" />
	
	
	<!--短箭头5--> 
	<line x1="300" y1="270" 
        x2="300" y2="250" 
        stroke="black"    
        stroke-width="1.5"/>	
	<!--三角形5-->	
    <polygon points="300,238 296,250 304,250" />
	
	<!--短箭头6--> 
	<line x1="420" y1="330" 
        x2="445" y2="330" 
        stroke="black"    
        stroke-width="1.5"/>	
	<!--三角形6-->	
    <polygon points="408,330 420,325 420,335" />
	
	
	<!--短箭头7--> 
	<line x1="420" y1="370" 
        x2="445" y2="370" 
        stroke="black"    
        stroke-width="1.5"/>	
	<!--三角形7-->	
    <polygon points="408,370 420,365 420,375" />
	
	<!--短箭头8--> 
	<line x1="420" y1="410" 
        x2="445" y2="410" 
        stroke="black"    
        stroke-width="1.5"/>	
	<!--三角形8-->	
    <polygon points="408,410 420,405 420,415" />
	
	<!--长箭头1--> 
	<line x1="70" y1="470" 
        x2="70" y2="300" 
        stroke="black"    
        stroke-width="2"/>	
	<!--三角形1-->	
    <polygon points="70,285 63,300 77,300" />
	
	<!-- 添加方框内容文本1.1-->
    <text 
    x="150" y="15"        
    text-anchor="middle"  
    font-size="15" 
    fill="black">Virtual memory address</text>
	
	<!-- 添加方框内容文本1.2-->
    <text 
    x="150" y="30"        
    text-anchor="middle"  
    font-size="15" 
    fill="black">(hexadecimal)</text>
	
	<!-- 添加方框内容文本1.3-->
    <text 
    x="300" y="55"        
    text-anchor="middle"  
    font-size="15" 
    fill="black">Kernal</text>
	
	<!-- 添加方框内容文本1.4-->
    <text 
    x="300" y="73.5"        
    text-anchor="middle"  
    font-size="11" 
    fill="black">(mapped into process virtual memory,</text>
	
	<!-- 添加方框内容文本1.5-->
    <text 
    x="300" y="90"        
    text-anchor="middle"  
    font-size="11" 
    fill="black">but not accessible to program</text>
	
	<!-- 添加方框内容文本1.6-->
    <text 
    x="500" y="40"        
    text-anchor="middle"  
    font-size="13" 
    fill="black">/proc/kallsyms</text>
	
	<!-- 添加方框内容文本1.7-->
    <text 
    x="520" y="55"        
    text-anchor="middle"  
    font-size="13" 
    fill="black">provides addresses of</text>
	
	<!-- 添加方框内容文本1.8-->
    <text 
    x="520" y="70"        
    text-anchor="middle"  
    font-size="13" 
    fill="black">kernel symbols in this</text>
	
	<!-- 添加方框内容文本1.9-->
    <text 
    x="521" y="85"        
    text-anchor="middle"  
    font-size="13" 
    fill="black">region(/proc/ksyms in</text>
	
	<!-- 添加方框内容文本1.10-->
    <text 
    x="520" y="100"        
    text-anchor="middle"  
    font-size="13" 
    fill="black">kernel 2.4 and earlier)</text>
	
	<!-- 添加方框内容文本1.11-->
    <text 
    x="150" y="105"        
    text-anchor="middle"  
    font-size="15" 
    fill="black">0xC0000000</text>
	
	<!-- 添加方框内容文本1.12-->
    <text 
    x="300" y="120"        
    text-anchor="middle"  
    font-size="15" 
    fill="black">argv,environ</text>
	
	<!-- 添加方框内容文本1.13-->
    <text 
    x="300" y="150"        
    text-anchor="middle"  
    font-size="15" 
    fill="black">Stack</text>
	
	<!-- 添加方框内容文本1.14-->
    <text 
    x="300" y="170"        
    text-anchor="middle"  
    font-size="15" 
    fill="black">(grows downwards)</text>
	
	<!-- 添加方框内容文本1.15-->
    <text 
    x="300" y="230"        
    text-anchor="middle"  
    font-size="15" 
    fill="black">(unallocated memory)</text>
	
	<!-- 添加方框内容文本1.16-->
    <text 
    x="110" y="185"        
    text-anchor="middle"  
    font-size="15" 
    fill="black">Top of stack</text>
	
	<!-- 添加方框内容文本1.17-->
    <text 
    x="120" y="260"        
    text-anchor="middle"  
    font-size="15" 
    fill="black">Program</text>
	
	<!-- 添加方框内容文本1.18-->
    <text 
    x="120" y="280"        
    text-anchor="middle"  
    font-size="15" 
    fill="black">break</text>
			
	
	<!-- 添加方框内容文本1.20-->
    <text 
    x="300" y="295"        
    text-anchor="middle"  
    font-size="15" 
    fill="black">Heap</text>
	
	<!-- 添加方框内容文本1.21-->
    <text 
    x="300" y="315"        
    text-anchor="middle"  
    font-size="15" 
    fill="black">(grows upwards)</text>
	
	<!-- 添加方框内容文本1.22-->
    <text 
    x="300" y="355"        
    text-anchor="middle"  
    font-size="15" 
    fill="black">Uninitialized data(bss)</text>
	
	<!-- 添加方框内容文本1.23-->
    <text 
    x="300" y="395"        
    text-anchor="middle"  
    font-size="15" 
    fill="black">Initialized data</text>
	
	<!-- 添加方框内容文本1.24-->
    <text 
    x="300" y="435"        
    text-anchor="middle"  
    font-size="15" 
    fill="black">Text(program code)</text>
	
	<!-- 添加方框内容文本1.25-->
    <text 
    x="470" y="335"        
    text-anchor="middle"  
    font-size="15" 
    fill="black">end</text>
	
	<!-- 添加方框内容文本1.26-->
    <text 
    x="475" y="375"        
    text-anchor="middle"  
    font-size="15" 
    fill="black">edata</text>
	
	<!-- 添加方框内容文本1.27-->
    <text 
    x="475" y="415"        
    text-anchor="middle"  
    font-size="15" 
    fill="black">etext</text>
	
	<!-- 添加方框内容文本1.28-->
    <text 
    x="150" y="455"        
    text-anchor="middle"  
    font-size="15" 
    fill="black">0x08048000</text>
	
	<!-- 添加方框内容文本1.29-->
    <text 
    x="150" y="475"        
    text-anchor="middle"  
    font-size="15" 
    fill="black">0x00000000</text>
	
    <!-- 垂直文本 -->	
	<text x="-280" y="60" transform="rotate(270, 100, 100)" fill="black">increasing virtual address</text>		
    <svg width="200" height="200" viewBox="0 0 200 200">
  
  <!-- 灰色填充，黑色边框的方框 -->
  <rect x="200" y="30" width="200" height="70" 
        fill="silver" stroke="black" stroke-width="2" /> 
  
  <rect x="200" y="180" width="200" height="90" 
        fill="silver" stroke="black" stroke-width="2" />
		
  <rect x="200" y="450" width="200" height="20" 
        fill="silver" stroke="black" stroke-width="2" /> 
		
  <rect 
       x="200" y="30"        
       width="200"  height="70"  
       stroke="black"
	   fill="silver"
       stroke-width="2"/>
	   
	<rect 
       x="200" y="180"        
       width="200"  height="90"  
       stroke="black"
	   fill="silver"
       stroke-width="2"/>
	 
	<rect 
       x="200" y="450"        
       width="200"  height="20"  
       stroke="black"
	   fill="black"
       stroke-width="2"/>
</svg>