<svg version="1.1" width="600" height="185" xmlns="http://www.w3.org/2000/svg" >
<defs><marker id="arrowhead" markerWidth="10" markerHeight="7" refX="0" refY="3.5" orient="auto"><polygon points="0 0, 10 3.5, 0 7" /></marker></defs>

<path d="M 50 60 h 300 v 50 h -300 v -50" stroke="#000000" stroke-width="1" fill="#EEEEEE"/>
<path d="M 350 60 h 200 v 50 h -200" stroke="#000000" stroke-width="1" fill="none"/>
<path d="M 70 60 v 50" stroke="#000000" stroke-width="1" fill="none"/>

<path d="M 50 30 V 48" stroke="#000000" stroke-width="1" fill="none" marker-end="url(#arrowhead)" />
<path d="M 550 30 V 48" stroke="#000000" stroke-width="1" fill="none" marker-end="url(#arrowhead)" />
<path d="M 60 135 V 122" stroke="#000000" stroke-width="1" fill="none" marker-end="url(#arrowhead)" />
<path d="M 350 135 V 122" stroke="#000000" stroke-width="1" fill="none" marker-end="url(#arrowhead)" />
<path d="M 550 135 V 122" stroke="#000000" stroke-width="1" fill="none" marker-end="url(#arrowhead)" />

<text x="15" y="25" style="font-size:13px;font-family:'Courier New'">ShmemSegHdr/ShmemBase</text>
<text x="515" y="25" style="font-size:13px;font-family:'Courier New'">ShmemEnd</text>

<text x="15" y="145" style="font-size:13px;font-family:'Courier New'">PGShmemHeader</text>
<text x="315" y="145" style="font-size:13px;font-family:'Courier New'">freeoffset</text>
<text x="515" y="145" style="font-size:13px;font-family:'Courier New'">totalsize</text>

<text x="170" y="90" style="font-size:13px;font-family:'Arial'">Alloced Space</text>
<text x="420" y="90" style="font-size:13px;font-family:'Arial'">Free Space</text>

<!-- 
<g transform="translate(0, 0)">
<path d="M 502 20 h 5 a 5 5 0 0 1 5 5 v 20 a 5 5 0 0 0 5 5 a 5 5 0 0 0 -5 5 v 10 a 5 5 0 0 1 -5 5 h -5" stroke="#000000" stroke-width="1" fill="none"/>
<path d="M 20 38 v -5 a 5 5 0 0 1 5 -5 h 40 a 5 5 0 0 0 5 -5 a 5 5 0 0 0 5 5 h 40 a 5 5 0 0 1 5 5 v 5" stroke="#000000" stroke-width="1" fill="none" />
<path d="M 30 166 v 5 a 5 5 0 0 0 5 5 h 30 a 5 5 0 0 1 5 5 a 5 5 0 0 1 5 -5 h 30 a 5 5 0 0 0 5 -5 v -5" stroke="#000000" stroke-width="1" fill="none" />
</g>
<path d="M 10 60 h 580 v 20 h -580 v -20" stroke="#000000" stroke-width="1" fill="none"/>
<text x="55" y="55" style="font-size:13px;font-family:'Arial'">2</text>
<text x="75" y="55" style="font-size:13px;font-family:'Arial'">3</text>
<text x="95" y="55" style="font-size:13px;font-family:'Arial'">4</text>
<text x="115" y="55" style="font-size:13px;font-family:'Arial'">5</text>
<text x="135" y="55" style="font-size:13px;font-family:'Arial'">6</text>
<text x="155" y="55" style="font-size:13px;font-family:'Arial'">7</text>
<text x="175" y="55" style="font-size:13px;font-family:'Arial'">8</text>
<text x="195" y="55" style="font-size:13px;font-family:'Arial'">9</text>

<text x="570" y="55" style="font-size:13px;font-family:'Arial'">n-1</text>
<text x="550" y="95" style="font-size:13px;font-family:'Arial'">n-2</text>
<text x="510" y="95" style="font-size:13px;font-family:'Arial'">n-4</text>
<text x="530" y="55" style="font-size:13px;font-family:'Arial'">n-3</text>

<path d="M 160 106 V 92" stroke="#000000" stroke-width="1" fill="none" marker-end="url(#arrowhead)" />

<text x="138" y="120" style="font-size:13px;font-family:'Arial'">one byte</text>
<path d="M 400 35 v 5 a 5 5 0 0 0 5 5 h 40 a 5 5 0 0 1 5 5 a 5 5 0 0 1 5 -5 h 40 a 5 5 0 0 0 5 -5 v -5" stroke="#000000" stroke-width="1" fill="none"/>
-->
</svg>
