<svg version="1.1" width="600" height="370" xmlns="http://www.w3.org/2000/svg" >
<defs><marker id="arrowhead" markerWidth="10" markerHeight="7" refX="0" refY="3.5" orient="auto"><polygon points="0 0, 10 3.5, 0 7" /></marker></defs>
<g transform="translate(0, 50)">
<g transform="translate(0, -40)">
<path d="M 20 50 h 560 v 20 h -560 v -20" stroke="#000000" stroke-width="1" fill="none"/>
<path d="M 40 50 v 20" stroke="#000000" stroke-width="1" fill="none"/>
<path d="M 60 50 v 20" stroke="#000000" stroke-width="1" fill="none"/>
<path d="M 80 50 v 20" stroke="#000000" stroke-width="1" fill="none"/>
<path d="M 100 50 v 20" stroke="#000000" stroke-width="1" fill="none"/>
<path d="M 120 50 v 20" stroke="#000000" stroke-width="1" fill="none"/>
<path d="M 140 50 v 20" stroke="#000000" stroke-width="1" fill="none"/>
<path d="M 160 50 v 20" stroke="#000000" stroke-width="1" fill="none"/>
<path d="M 180 50 v 20" stroke="#000000" stroke-width="1" fill="none"/>
<path d="M 200 50 v 20" stroke="#000000" stroke-width="1" fill="none"/>
<path d="M 220 50 v 20" stroke="#000000" stroke-width="1" fill="none"/>
<path d="M 240 50 v 20" stroke="#000000" stroke-width="1" fill="none"/>
<path d="M 260 50 v 20" stroke="#000000" stroke-width="1" fill="none"/>
<path d="M 280 50 v 20" stroke="#000000" stroke-width="1" fill="none"/>
<path d="M 300 50 v 20" stroke="#000000" stroke-width="1" fill="none"/>
<path d="M 320 50 v 20" stroke="#000000" stroke-width="1" fill="none"/>
<path d="M 340 50 v 20" stroke="#000000" stroke-width="1" fill="none"/>
<path d="M 360 50 v 20" stroke="#000000" stroke-width="1" fill="none"/>
<path d="M 500 50 v 20" stroke="#000000" stroke-width="1" fill="none"/>
<path d="M 520 50 v 20" stroke="#000000" stroke-width="1" fill="none"/>
<path d="M 540 50 v 20" stroke="#000000" stroke-width="1" fill="none"/>
<path d="M 560 50 v 20" stroke="#000000" stroke-width="1" fill="none"/>

<text x="400" y="62" style="font-size:35px;font-family:'Arial'">......</text>

<text x="25" y="45" style="font-size:15px;font-family:'Arial'">0</text>
<text x="45" y="45" style="font-size:15px;font-family:'Arial'">1</text>
<text x="65" y="45" style="font-size:15px;font-family:'Arial'">2</text>
<text x="85" y="45" style="font-size:15px;font-family:'Arial'">3</text>
<text x="105" y="45" style="font-size:15px;font-family:'Arial'">4</text>
<text x="125" y="45" style="font-size:15px;font-family:'Arial'">5</text>
<text x="145" y="45" style="font-size:15px;font-family:'Arial'">6</text>
<text x="165" y="45" style="font-size:15px;font-family:'Arial'">7</text>
<text x="185" y="45" style="font-size:15px;font-family:'Arial'">8</text>
<text x="205" y="45" style="font-size:15px;font-family:'Arial'">9</text>
<text x="425" y="15" style="font-size:15px;font-family:'Arial'">0xFFFFFFFFFFFFFFFF</text>
<text x="390" y="30" style="font-size:15px;font-family:'Arial'">0xFFFFFFFFFFFFFFFE</text>

<path d="M 570 20 V 38 " stroke="#000000" stroke-width="1" fill="none" marker-end="url(#arrowhead)" />
<path d="M 550 32 V 38 " stroke="#000000" stroke-width="1" fill="none" marker-end="url(#arrowhead)" />
</g>

<path d="M 20 120 h 68 v 100 h -68 v -100" stroke="#000000" stroke-width="1" stroke-dasharray="5,3" fill="none"/>
<path d="M 120 120 h 68 v 100 h -68 v -100" stroke="#000000" stroke-width="1" stroke-dasharray="5,3" fill="none"/>
<path d="M 220 120 h 68 v 100 h -68 v -100" stroke="#000000" stroke-width="1" stroke-dasharray="5,3" fill="none"/>
<path d="M 512 120 h 68 v 100 h -68 v -100" stroke="#000000" stroke-width="1" stroke-dasharray="5,3" fill="none"/>

<g transform="translate(0, 0)">
<path d="M 25 125 h 58 v 10 h -58 v -10" stroke="#000000" stroke-width="1" fill="none"/>
<path d="M 25 140 h 58 v 10 h -58 v -10" stroke="#000000" stroke-width="1" fill="none"/>
<path d="M 25 155 h 58 v 10 h -58 v -10" stroke="#000000" stroke-width="1" fill="none"/>
<text x="30" y="183" style="font-size:29px;font-family:'Arial'">......</text>
<path d="M 25 200 h 58 v 10 h -58 v -10" stroke="#000000" stroke-width="1" fill="none"/>
</g>

<g transform="translate(100, 0)">
<path d="M 25 125 h 58 v 10 h -58 v -10" stroke="#000000" stroke-width="1" fill="none"/>
<path d="M 25 140 h 58 v 10 h -58 v -10" stroke="#000000" stroke-width="1" fill="none"/>
<path d="M 25 155 h 58 v 10 h -58 v -10" stroke="#000000" stroke-width="1" fill="none"/>
<text x="30" y="183" style="font-size:29px;font-family:'Arial'">......</text>
<path d="M 25 200 h 58 v 10 h -58 v -10" stroke="#000000" stroke-width="1" fill="none"/>
</g>

<g transform="translate(200, 0)">
<path d="M 25 125 h 58 v 10 h -58 v -10" stroke="#000000" stroke-width="1" fill="none"/>
<path d="M 25 140 h 58 v 10 h -58 v -10" stroke="#000000" stroke-width="1" fill="none"/>
<path d="M 25 155 h 58 v 10 h -58 v -10" stroke="#000000" stroke-width="1" fill="none"/>
<text x="30" y="183" style="font-size:29px;font-family:'Arial'">......</text>
<path d="M 25 200 h 58 v 10 h -58 v -10" stroke="#000000" stroke-width="1" fill="none"/>

<text x="92" y="135" style="font-size:13px;font-family:'Arial'">2.0</text>
<text x="92" y="150" style="font-size:13px;font-family:'Arial'">2.1</text>
<text x="92" y="165" style="font-size:13px;font-family:'Arial'">2.2</text>
<text x="92" y="210" style="font-size:13px;font-family:'Arial'">2.255</text>
</g>

<g transform="translate(492, 0)">
<path d="M 25 125 h 58 v 10 h -58 v -10" stroke="#000000" stroke-width="1" fill="none"/>
<path d="M 25 140 h 58 v 10 h -58 v -10" stroke="#000000" stroke-width="1" fill="none"/>
<path d="M 25 155 h 58 v 10 h -58 v -10" stroke="#000000" stroke-width="1" fill="none"/>
<text x="30" y="183" style="font-size:29px;font-family:'Arial'">......</text>
<path d="M 25 200 h 58 v 10 h -58 v -10" stroke="#000000" stroke-width="1" fill="none"/>
</g>

<text x="350" y="162" style="font-size:63px;font-family:'Arial'">......</text>

<text x="50" y="115" style="font-size:15px;font-family:'Arial'">0</text>
<text x="150" y="115" style="font-size:15px;font-family:'Arial'">1</text>
<text x="250" y="115" style="font-size:15px;font-family:'Arial'">2</text>
<text x="500" y="115" style="font-size:15px;font-family:'Arial'">0xFFFFFFFF</text>
<!--
<text x="35" y="170" style="font-size:15px;font-family:'Arial'">4 GB</text>
<text x="135" y="170" style="font-size:15px;font-family:'Arial'">4 GB</text>
<text x="235" y="170" style="font-size:15px;font-family:'Arial'">4 GB</text>
<text x="527" y="170" style="font-size:15px;font-family:'Arial'">4 GB</text>
-->
<path d="M 20 225 v 5 a 5 5 0 0 0 5 5 h 270 a 5 5 0 0 1 5 5 a 5 5 0 0 1 5 -5 h 270 a 5 5 0 0 0 5 -5 v -5" stroke="#000000" stroke-width="1" fill="none" />

<text x="280" y="260" style="font-size:15px;font-family:'Arial'">4 GB</text>
</g>
<!--
<path d="M 40 50 v 20" stroke="#000000" stroke-width="1" fill="none"/>
<path d="M 60 50 v 20" stroke="#000000" stroke-width="1" fill="none"/>
<path d="M 80 50 v 20" stroke="#000000" stroke-width="1" fill="none"/>
<path d="M 100 50 v 20" stroke="#000000" stroke-width="1" fill="none"/>
<path d="M 120 50 v 20" stroke="#000000" stroke-width="1" fill="none"/>
<path d="M 140 50 v 20" stroke="#000000" stroke-width="1" fill="none"/>
<path d="M 160 50 v 20" stroke="#000000" stroke-width="1" fill="none"/>
<path d="M 180 50 v 20" stroke="#000000" stroke-width="1" fill="none"/>
<path d="M 200 50 v 20" stroke="#000000" stroke-width="1" fill="none"/>
<path d="M 220 50 v 20" stroke="#000000" stroke-width="1" fill="none"/>
<path d="M 240 50 v 20" stroke="#000000" stroke-width="1" fill="none"/>
<path d="M 260 50 v 20" stroke="#000000" stroke-width="1" fill="none"/>
<path d="M 280 50 v 20" stroke="#000000" stroke-width="1" fill="none"/>
<path d="M 300 50 v 20" stroke="#000000" stroke-width="1" fill="none"/>
<path d="M 320 50 v 20" stroke="#000000" stroke-width="1" fill="none"/>
<path d="M 340 50 v 20" stroke="#000000" stroke-width="1" fill="none"/>
<path d="M 360 50 v 20" stroke="#000000" stroke-width="1" fill="none"/>
<path d="M 380 50 v 20" stroke="#000000" stroke-width="1" fill="none"/>
<path d="M 400 50 v 20" stroke="#000000" stroke-width="1" fill="none"/>
<path d="M 420 50 v 20" stroke="#000000" stroke-width="1" fill="none"/>
<path d="M 440 50 v 20" stroke="#000000" stroke-width="1" fill="none"/>
<path d="M 460 50 v 20" stroke="#000000" stroke-width="1" fill="none"/>
<path d="M 480 50 v 20" stroke="#000000" stroke-width="1" fill="none"/>
<path d="M 500 50 v 20" stroke="#000000" stroke-width="1" fill="none"/>
<path d="M 520 50 v 20" stroke="#000000" stroke-width="1" fill="none"/>
<path d="M 540 50 v 20" stroke="#000000" stroke-width="1" fill="none"/>
<path d="M 560 50 v 20" stroke="#000000" stroke-width="1" fill="none"/>
-->

<!--
<g transform="translate(0, -30)">

<line x1="20" y1="40" x2="20" y2="80" stroke="#000000" stroke-dasharray="5,3" stroke-width="1"/>
<line x1="580" y1="40" x2="580" y2="80" stroke="#000000" stroke-dasharray="5,3" stroke-width="1"/>

<line x1="250" y1="50" x2="32" y2="50" stroke="#000" stroke-width="1" marker-end="url(#arrowhead)" />
<line x1="350" y1="50" x2="568" y2="50" stroke="#000" stroke-width="1" marker-end="url(#arrowhead)" />

<rect x="20" y="80" width="560" height="40" style="fill:#DAE8FC;stroke:#0000FF;stroke-width:1" />
<line x1="60" y1="80" x2="60" y2="120" stroke="#0000FF" stroke-width="1"/>
<line x1="100" y1="80" x2="100" y2="120" stroke="#0000FF" stroke-width="1"/>
<line x1="140" y1="80" x2="140" y2="120" stroke="#0000FF" stroke-width="1"/>
<line x1="180" y1="80" x2="180" y2="120" stroke="#0000FF" stroke-width="1"/>

<line x1="540" y1="80" x2="540" y2="120" stroke="#0000FF" stroke-width="1"/>
<line x1="500" y1="80" x2="500" y2="120" stroke="#0000FF" stroke-width="1"/>

<line x1="380" y1="80" x2="380" y2="120" stroke="#0000FF" stroke-width="1"/>
<line x1="340" y1="80" x2="340" y2="120" stroke="#0000FF" stroke-width="1"/>


<path d="M 340 180 V 133 " stroke="#000000" stroke-width="1" fill="none" marker-end="url(#arrowhead)" />

<line x1="336" y1="160" x2="33" y2="160" stroke="#000" stroke-dasharray="5,3" stroke-width="1" marker-end="url(#arrowhead)" />

<text x="273" y="55" style="font-size:13px;font-family:'Microsoft Yahei'">WAL空间</text>
<text x="120" y="177" style="font-size:13px;font-family:'Microsoft Yahei'">LSN是字节的偏移量</text>


<text x="115" y="137" style="font-size:15px;font-family:'Arial'">2</text>
<text x="155" y="137" style="font-size:15px;font-family:'Arial'">3</text>
  
<path d="M 560 145 V 133" stroke="#000000" stroke-width="1" fill="none" marker-end="url(#arrowhead)" />
<text x="420" y="160" style="font-size:15px;font-family:'Arial'">0xFFFFFFFFFFFFFFFF</text>
</g>
-->
</svg>
